<svg xmlns="http://www.w3.org/2000/svg" width="145.95" height="165.976" viewBox="0 0 145.95 165.976">
  <g id="Group_1" data-name="Group 1" transform="translate(-697.124 -801.672)">
    <path id="path16" d="M236.362-345.919a4.832,4.832,0,0,1,2.745.927c-6.86,3.228-14.213,11.359-17.319,27.595l-13.076,4.049C212.35-325.732,220.987-345.919,236.362-345.919Zm6.36,6.02c1.316,3.3,2.172,8.032,2.172,14.42,0,.327,0,.625-.005.928l-16.543,5.123c3.185-12.293,9.156-18.231,14.376-20.471Zm15.791,11.132-8.009,2.479c0-.564,0-1.12,0-1.727a39.256,39.256,0,0,0-1.913-12.933c4.736.595,7.889,5.981,9.919,12.181Zm38.443,9.423a1.6,1.6,0,0,0-1.449-1.347c-.6-.051-13.36-1-13.36-1s-8.86-8.8-9.832-9.769-2.873-.677-3.611-.46c-.109.032-1.936.6-4.959,1.531-2.96-8.516-8.183-16.343-17.372-16.343-.253,0-.515.011-.777.025-2.612-3.456-5.849-4.957-8.645-4.957-21.405,0-31.632,26.759-34.839,40.357-8.317,2.577-14.227,4.409-14.981,4.647-4.644,1.456-4.789,1.6-5.4,5.977-.46,3.312-12.608,97.258-12.608,97.258l94.66,17.736,51.29-11.1S297.069-318.51,296.955-319.345" transform="translate(528 1153.332)" fill="#88c532"/>
    <path id="path18" d="M295.506-320.691c-.6-.051-13.36-1-13.36-1s-8.86-8.8-9.832-9.768a2.419,2.419,0,0,0-1.368-.629l-7.157,146.4,51.285-11.095s-18.005-121.728-18.119-122.564a1.6,1.6,0,0,0-1.449-1.347" transform="translate(528 1153.332)" fill="#538f31"/>
    <path id="path20" d="M246.373-292.351l-6.324,18.812a29.094,29.094,0,0,0-12.333-2.957c-9.957,0-10.459,6.249-10.459,7.824,0,8.592,22.4,11.884,22.4,32.009,0,15.833-10.041,26.029-23.583,26.029-16.251,0-24.559-10.113-24.559-10.113l4.351-14.375s8.541,7.333,15.749,7.333a6.354,6.354,0,0,0,6.625-6.417c0-11.208-18.375-11.708-18.375-30.124,0-15.5,11.124-30.5,33.583-30.5,8.653,0,12.928,2.479,12.928,2.479" transform="translate(528 1153.332)" fill="#fff"/>
  </g>
</svg>
