<svg xmlns="http://www.w3.org/2000/svg" width="595.084" height="169.989" viewBox="0 0 595.084 169.989">
  <g id="Group_1" data-name="Group 1" transform="translate(-697.124 -801.672)">
    <path id="path16" d="M236.362-345.919a4.832,4.832,0,0,1,2.745.927c-6.86,3.228-14.213,11.359-17.319,27.595l-13.076,4.049C212.35-325.732,220.987-345.919,236.362-345.919Zm6.36,6.02c1.316,3.3,2.172,8.032,2.172,14.42,0,.327,0,.625-.005.928l-16.543,5.123c3.185-12.293,9.156-18.231,14.376-20.471Zm15.791,11.132-8.009,2.479c0-.564,0-1.12,0-1.727a39.256,39.256,0,0,0-1.913-12.933c4.736.595,7.889,5.981,9.919,12.181Zm38.443,9.423a1.6,1.6,0,0,0-1.449-1.347c-.6-.051-13.36-1-13.36-1s-8.86-8.8-9.832-9.769-2.873-.677-3.611-.46c-.109.032-1.936.6-4.959,1.531-2.96-8.516-8.183-16.343-17.372-16.343-.253,0-.515.011-.777.025-2.612-3.456-5.849-4.957-8.645-4.957-21.405,0-31.632,26.759-34.839,40.357-8.317,2.577-14.227,4.409-14.981,4.647-4.644,1.456-4.789,1.6-5.4,5.977-.46,3.312-12.608,97.258-12.608,97.258l94.66,17.736,51.29-11.1S297.069-318.51,296.955-319.345" transform="translate(528 1153.332)" fill="#88c532"/>
    <path id="path18" d="M295.506-320.691c-.6-.051-13.36-1-13.36-1s-8.86-8.8-9.832-9.768a2.419,2.419,0,0,0-1.368-.629l-7.157,146.4,51.285-11.095s-18.005-121.728-18.119-122.564a1.6,1.6,0,0,0-1.449-1.347" transform="translate(528 1153.332)" fill="#538f31"/>
    <path id="path20" d="M246.373-292.351l-6.324,18.812a29.094,29.094,0,0,0-12.333-2.957c-9.957,0-10.459,6.249-10.459,7.824,0,8.592,22.4,11.884,22.4,32.009,0,15.833-10.041,26.029-23.583,26.029-16.251,0-24.559-10.113-24.559-10.113l4.351-14.375s8.541,7.333,15.749,7.333a6.354,6.354,0,0,0,6.625-6.417c0-11.208-18.375-11.708-18.375-30.124,0-15.5,11.124-30.5,33.583-30.5,8.653,0,12.928,2.479,12.928,2.479" transform="translate(528 1153.332)" fill="#fff"/>
    <path id="path22" d="M374.864-257.085c-5.116-2.776-7.745-5.115-7.745-8.331,0-4.092,3.653-6.723,9.353-6.723a33.408,33.408,0,0,1,12.568,2.777l4.677-14.323s-4.3-3.361-16.953-3.361c-17.612,0-29.815,10.084-29.815,24.261,0,8.037,5.7,14.176,13.3,18.56,6.139,3.507,8.331,5.992,8.331,9.647,0,3.8-3.069,6.868-8.769,6.868-8.492,0-16.515-4.384-16.515-4.384l-4.969,14.323s7.409,4.968,19.876,4.968c18.124,0,31.129-8.915,31.129-24.991,0-8.623-6.576-14.761-14.468-19.292" transform="translate(528 1153.332)" fill="#231f20"/>
    <path id="path24" d="M447.062-287.191c-8.915,0-15.929,4.239-21.337,10.669l-.292-.147,7.745-40.483H413.01L393.426-214.117h20.168l6.724-35.221c2.631-13.3,9.5-21.484,15.929-21.484,4.531,0,6.285,3.068,6.285,7.453a46.138,46.138,0,0,1-.877,8.915l-7.6,40.337h20.169l7.891-41.652a75.27,75.27,0,0,0,1.463-13.153c0-11.4-5.993-18.269-16.516-18.269" transform="translate(528 1153.332)" fill="#231f20"/>
    <path id="path26" d="M499.239-228.147c-6.869,0-9.792-5.845-9.792-13.152,0-11.547,5.992-30.4,16.953-30.4,7.16,0,9.5,6.139,9.5,12.131C515.9-247.146,509.907-228.147,499.239-228.147Zm9.937-59.044c-24.26,0-40.336,21.923-40.336,46.329,0,15.639,9.645,28.207,27.768,28.207,23.821,0,39.9-21.337,39.9-46.329,0-14.468-8.476-28.207-27.329-28.207" transform="translate(528 1153.332)" fill="#231f20"/>
    <path id="path28" d="M568.807-227.855a12.807,12.807,0,0,1-8.331-2.921l3.361-18.855c2.339-12.568,8.915-20.9,15.931-20.9,6.137,0,8.037,5.7,8.037,11.107,0,13.008-7.745,31.568-19,31.568ZM588.1-287.191c-13.613,0-21.339,11.984-21.339,11.984h-.292l1.169-10.815H549.808c-.877,7.308-2.485,18.415-4.093,26.745l-14.031,73.805h20.169l5.553-29.815h.439s4.14,2.631,11.839,2.631c23.676,0,39.167-24.26,39.167-48.813,0-13.592-5.992-25.723-20.752-25.723" transform="translate(528 1153.332)" fill="#231f20"/>
    <path id="path30" d="M637.644-316.129A11.51,11.51,0,0,0,626.1-304.437c0,5.992,3.8,10.085,9.5,10.085h.292c6.284,0,11.692-4.24,11.839-11.692,0-5.847-3.947-10.085-10.085-10.085" transform="translate(528 1153.332)" fill="#231f20"/>
    <path id="path32" d="M609.437-214.117h20.169l13.737-71.466H623.029l-13.592,71.466" transform="translate(528 1153.332)" fill="#231f20"/>
    <path id="path34" d="M694.641-285.73H680.61l.731-3.361c1.169-6.868,5.261-13.007,11.985-13.007a21.025,21.025,0,0,1,6.429,1.023l3.947-15.784s-3.508-1.753-10.961-1.753c-7.161,0-14.323,2.047-19.731,6.723-6.869,5.847-10.084,14.323-11.692,22.8l-.584,3.361h-9.353l-2.923,15.2h9.353l-10.669,56.413H667.31L677.98-270.53h13.884l2.777-15.2" transform="translate(528 1153.332)" fill="#231f20"/>
    <path id="path36" d="M743.162-285.583s-12.607,31.767-18.268,49.107H724.6c-.388-5.583-4.969-49.107-4.969-49.107H698.441l12.131,65.621a4.289,4.289,0,0,1-.439,3.361,34.5,34.5,0,0,1-10.961,12.129,43.62,43.62,0,0,1-11.4,5.7l5.553,17.1c4.092-.877,12.569-4.239,19.729-10.961,9.208-8.623,17.684-21.923,26.453-40.045l24.7-52.905H743.162" transform="translate(528 1153.332)" fill="#231f20"/>
  </g>
</svg>
